{"title":"Homefront 2013 BRRip XviD MP3-RARBG","uid":9664066,"size":976979282,"categoryP":"video","categoryS":"movies","magnet":"?xt=urn:btih:130c8cbc45b151061d371060471fc483ed0886e5&amp;dn=Homefront+2013+BRRip+XviD+MP3-RARBG&amp;tr=udp%3A%2F%2Ftracker.openbittorrent.com%3A80&amp;tr=udp%3A%2F%2Fopen.demonii.com%3A1337&amp;tr=udp%3A%2F%2Ftracker.coppersurfer.tk%3A6969&amp;tr=udp%3A%2F%2Fexodus.desync.com%3A6969","seeders":1,"leechers":10,"uploader":"HeroMaster","files":-1,"time":1393341343,"description":":::::::::: RARBG PRESENTS ::::::::::\n\n &lt;a href=&quot;\nhttp://i.imgur.com/zY8xS98.png&quot; rel=&quot;nofollow&quot; target=&quot;_NEW&quot;&gt;\nhttp://i.imgur.com/zY8xS98.png&lt;/a&gt;\n\n\n:::: Homefront 2013 BRRip XviD MP3-RARBG ::::\n\n\n::Information::\n\n\nFormat                                   : AVI\nFormat/Info                              : Audio Video Interleave\nFile size                                : 912 MiB\nDuration                                 : 1h 40mn\nOverall bit rate                         : 1 268 Kbps\nMovie name                               : Downloaded from RARBG.COM\nWriting application                      : Lavf55.22.103\nComment                                  : Downloaded from RARBG.COM\n\nVideo\nID                                       : 0\nFormat                                   : xvid\nCodec ID                                 : xvid\nDuration                                 : 1h 40mn\nBit rate                                 : 999 Kbps\nWidth                                    : 720 pixels\nHeight                                   : 302 pixels\nDisplay aspect ratio                     : 2.40:1\nFrame rate                               : 23.976 fps\nBits/(Pixel*Frame)                       : 0.192\nStream size                              : 719 MiB (79%)\nTitle                                    : X264\n\nAudio\nID                                       : 1\nFormat                                   : MPEG Audio\nFormat version                           : Version 1\nFormat profile                           : Layer 3\nMode                                     : Joint stereo\nCodec ID                                 : 55\nCodec ID/Hint                            : MP3\nDuration                                 : 1h 40mn\nBit rate mode                            : Constant\nBit rate                                 : 256 Kbps\nChannel(s)                               : 2 channels\nSampling rate                            : 48.0 KHz\nCompression mode                         : Lossy\nStream size                              : 184 MiB (20%)\nAlignment                                : Aligned on interleaves\nInterleave, duration                     : 24 ms (0.58 video frame)\nTitle                                    : DTS\nWriting library                          : LAME3.99.5\n\n\n::IMDB::\n\n &lt;a href=&quot;\nhttp://imdb.com/title/tt2312718/&quot; rel=&quot;nofollow&quot; target=&quot;_NEW&quot;&gt;\nhttp://imdb.com/title/tt2312718/&lt;/a&gt;\n\n\n::Greetz and Respect::\n\n\nALL CREDIT Goes to Scene for Ripping and Distribution.\n\n\n::Poster::\n\n &lt;a href=&quot;\nhttp://i.imgur.com/d43ue0k.png&quot; rel=&quot;nofollow&quot; target=&quot;_NEW&quot;&gt;\nhttp://i.imgur.com/d43ue0k.png&lt;/a&gt;\n\n\n::Screenshots::\n\n &lt;a href=&quot;\nhttp://i.imgur.com/nvsiTOW.png&quot; rel=&quot;nofollow&quot; target=&quot;_NEW&quot;&gt;\nhttp://i.imgur.com/nvsiTOW.png&lt;/a&gt;\n\n &lt;a href=&quot;\nhttp://i.imgur.com/tsG3fuo.png&quot; rel=&quot;nofollow&quot; target=&quot;_NEW&quot;&gt;\nhttp://i.imgur.com/tsG3fuo.png&lt;/a&gt;\n\n &lt;a href=&quot;\nhttp://i.imgur.com/9n8tP2m.png&quot; rel=&quot;nofollow&quot; target=&quot;_NEW&quot;&gt;\nhttp://i.imgur.com/9n8tP2m.png&lt;/a&gt;\n\n\nSEED AND ENJOY!","torrent":{"xt":"urn:btih:130c8cbc45b151061d371060471fc483ed0886e5","amp;dn":"Homefront+2013+BRRip+XviD+MP3-RARBG","amp;tr":["udp%3A%2F%2Ftracker.openbittorrent.com%3A80","udp%3A%2F%2Fopen.demonii.com%3A1337","udp%3A%2F%2Ftracker.coppersurfer.tk%3A6969","udp%3A%2F%2Fexodus.desync.com%3A6969"],"infoHash":"130c8cbc45b151061d371060471fc483ed0886e5","infoHashBuffer":{"type":"Buffer","data":[19,12,140,188,69,177,81,6,29,55,16,96,71,31,196,131,237,8,134,229]},"announce":[],"urlList":[]}}